<svg version="1.1" id="Layer_1" xmlns="http://www.w3.org/2000/svg" xmlns:xlink="http://www.w3.org/1999/xlink" x="0px" y="0px"
	 width="100%" viewBox="0 0 200 200" enable-background="new 0 0 200 200" xml:space="preserve">
<path fill="#000000" opacity="1.000000" stroke="none" 
	d="
M117.000000,201.000000 
	C78.024071,201.000000 39.548149,201.000000 1.036112,201.000000 
	C1.036112,134.399109 1.036112,67.798203 1.036112,1.098643 
	C67.559090,1.098643 134.118378,1.098643 200.838837,1.098643 
	C200.838837,67.666351 200.838837,134.333145 200.838837,201.000000 
	C173.131821,201.000000 145.315903,201.000000 117.000000,201.000000 
M196.039108,102.939270 
	C196.065857,106.400429 196.092606,109.861580 195.419937,112.753098 
	C195.284897,110.273094 194.892181,107.775787 195.057388,105.315956 
	C196.006546,91.184708 194.577057,77.428398 188.692764,64.395615 
	C185.384201,57.067707 181.215775,50.364330 176.450317,43.740479 
	C170.365768,35.283165 162.779953,29.112024 154.842743,22.889719 
	C145.738342,15.752418 134.863831,12.679852 124.345329,8.730060 
	C123.448563,8.393317 122.493011,8.055752 121.552528,8.017203 
	C112.284096,7.637316 103.007950,6.970986 93.744560,7.106794 
	C87.380043,7.200102 80.990112,8.190136 74.699654,9.285396 
	C72.480484,9.671785 70.419022,12.727592 68.464195,12.553924 
	C61.178249,11.906630 56.394382,17.188778 50.681538,19.782488 
	C45.064331,22.332781 40.413551,27.341301 35.855186,31.799255 
	C31.504040,36.054554 27.468124,40.740746 23.936607,45.695778 
	C20.222988,50.906315 16.009817,56.297173 14.292532,62.264664 
	C11.897014,70.588974 7.922031,78.249229 7.488742,87.576820 
	C6.663494,105.342308 6.358443,122.713890 14.150939,139.073166 
	C17.374069,145.839691 21.478474,152.337112 26.086275,158.252609 
	C31.081165,164.665054 36.805523,170.610580 42.807423,176.109589 
	C49.120583,181.893768 56.481888,186.337509 64.793968,188.864594 
	C72.798523,191.298218 80.843681,193.598328 89.290466,196.754852 
	C96.862732,196.754852 104.434990,196.754852 112.007256,196.754852 
	C112.004601,196.519699 112.001938,196.284531 111.999283,196.049377 
	C104.259933,196.049377 96.520584,196.049377 89.324974,195.347946 
	C100.149673,194.899521 111.129044,195.411102 121.750275,193.699814 
	C130.291870,192.323593 138.626083,188.762589 146.613541,185.190018 
	C151.223206,183.128235 155.377701,179.535706 159.009750,175.904648 
	C167.420334,167.496368 176.473740,159.402954 183.211792,149.747940 
	C189.197021,141.171692 192.447861,130.674850 193.477997,119.286919 
	C193.893646,121.047852 194.179626,122.259392 194.453644,123.420288 
	C194.985825,119.942093 195.501358,116.572655 196.649216,112.598351 
	C196.695908,109.079155 196.742584,105.559967 196.885208,101.118195 
	C196.885208,97.405907 196.885208,93.693619 196.885208,89.981323 
	C196.660416,89.981865 196.435608,89.982407 196.210815,89.982948 
	C196.210815,94.002083 196.210815,98.021225 196.039108,102.939270 
z"/>
<path fill="#0179AF" opacity="1.000000" stroke="none" 
	d="
M88.871002,195.957092 
	C80.843681,193.598328 72.798523,191.298218 64.793968,188.864594 
	C56.481888,186.337509 49.120583,181.893768 42.807423,176.109589 
	C36.805523,170.610580 31.081165,164.665054 26.086275,158.252609 
	C21.478474,152.337112 17.374069,145.839691 14.150939,139.073166 
	C6.358443,122.713890 6.663494,105.342308 7.488742,87.576820 
	C7.922031,78.249229 11.897014,70.588974 14.292532,62.264664 
	C16.009817,56.297173 20.222988,50.906315 23.936607,45.695778 
	C27.468124,40.740746 31.504040,36.054554 35.855186,31.799255 
	C40.413551,27.341301 45.064331,22.332781 50.681538,19.782488 
	C56.394382,17.188778 61.178249,11.906630 68.464195,12.553924 
	C70.419022,12.727592 72.480484,9.671785 74.699654,9.285396 
	C80.990112,8.190136 87.380043,7.200102 93.744560,7.106794 
	C103.007950,6.970986 112.284096,7.637316 121.552528,8.017203 
	C122.493011,8.055752 123.448563,8.393317 124.345329,8.730060 
	C134.863831,12.679852 145.738342,15.752418 154.842743,22.889719 
	C162.779953,29.112024 170.365768,35.283165 176.450317,43.740479 
	C181.215775,50.364330 185.384201,57.067707 188.692764,64.395615 
	C194.577057,77.428398 196.006546,91.184708 195.057388,105.315956 
	C194.892181,107.775787 195.284897,110.273094 195.741699,113.006157 
	C196.063446,113.259216 196.016891,113.203217 196.016891,113.203217 
	C195.501358,116.572655 194.985825,119.942093 194.453644,123.420288 
	C194.179626,122.259392 193.893646,121.047852 193.477997,119.286919 
	C192.447861,130.674850 189.197021,141.171692 183.211792,149.747940 
	C176.473740,159.402954 167.420334,167.496368 159.009750,175.904648 
	C155.377701,179.535706 151.223206,183.128235 146.613541,185.190018 
	C138.626083,188.762589 130.291870,192.323593 121.750275,193.699814 
	C111.129044,195.411102 100.149673,194.899521 89.072968,195.673080 
	C88.820961,195.998215 88.871002,195.957092 88.871002,195.957092 
M57.747993,89.726982 
	C57.299374,88.247963 57.034409,86.661133 56.273754,85.365280 
	C56.082176,85.038910 53.595726,85.366463 53.395859,85.876389 
	C52.918484,87.094330 53.175259,88.600021 53.140060,90.711853 
	C52.099369,91.878616 51.058674,93.045380 49.381844,93.887688 
	C47.242046,93.132782 44.876850,91.424217 43.019245,91.863266 
	C40.673161,92.417770 37.773109,94.295410 36.855850,96.372421 
	C35.465584,99.520500 38.225697,101.409248 41.114902,102.479446 
	C42.234524,102.894173 43.332718,103.366760 44.440674,103.812973 
	C44.333042,104.233566 44.225410,104.654152 44.117779,105.074738 
	C42.530994,104.778282 40.893784,104.097321 39.372040,104.296875 
	C37.939999,104.484665 36.629734,105.601143 34.966599,106.464378 
	C41.151859,111.557457 46.532749,111.189827 50.780594,105.860428 
	C51.579403,106.509415 52.486732,107.062859 53.157417,107.824654 
	C55.516514,110.504173 64.023605,111.248459 66.978172,108.075378 
	C67.017921,105.274658 66.749741,102.417656 67.246338,99.700432 
	C67.449951,98.586327 69.304565,97.773964 70.408142,96.824341 
	C71.274338,97.831039 72.632729,98.724823 72.895439,99.869972 
	C73.327507,101.753395 72.527588,104.007683 73.210464,105.721817 
	C73.973091,107.636192 75.810036,109.122589 77.179420,110.795258 
	C78.185364,109.218323 79.191307,107.641388 80.896759,106.018166 
	C81.363686,105.993614 81.830605,105.969063 82.852409,106.339165 
	C87.810364,109.266525 82.881248,111.795723 82.365280,114.413124 
	C90.298477,119.223961 98.828430,117.055687 99.677025,109.842262 
	C100.294655,104.592194 100.006989,99.214241 99.789062,93.907005 
	C99.749886,92.952736 98.086769,91.284157 97.173836,91.284447 
	C93.572495,91.285576 89.971313,91.820328 85.771179,91.949211 
	C84.399910,92.629303 83.063217,93.395676 81.646889,93.963318 
	C80.423653,94.453575 79.109848,94.717857 77.920227,95.069878 
	C77.920227,95.069878 77.866989,95.136169 77.901260,94.424835 
	C76.772919,90.482094 76.396484,90.244995 73.477081,91.979828 
	C73.477081,91.979828 73.023033,91.794136 72.467255,91.381744 
	C68.981003,91.623978 65.494759,91.866211 62.077179,92.288788 
	C62.077179,92.288788 62.097672,92.480675 61.664097,93.019485 
	C60.987793,96.823257 60.311489,100.627037 59.635185,104.430809 
	C59.295994,104.377808 58.956802,104.324806 58.617611,104.271805 
	C58.089127,100.171341 57.560638,96.070877 57.009869,91.198387 
	C56.987801,90.941879 56.965736,90.685379 57.131989,90.475182 
	C57.131989,90.475182 57.192341,90.148125 57.747993,89.726982 
M127.780075,85.824173 
	C126.218597,85.824173 124.657112,85.824173 122.921738,85.824173 
	C122.921738,92.030609 122.831879,97.656174 122.946686,103.277550 
	C123.064659,109.053825 125.275757,110.576614 131.312607,109.188812 
	C131.520660,107.781746 131.735260,106.330444 132.615097,104.439941 
	C137.804810,111.481377 138.794418,111.751549 145.840637,108.736000 
	C148.276123,109.522865 149.947250,110.062775 151.618393,110.602692 
	C152.004440,108.954430 152.803528,107.275230 152.682938,105.664894 
	C152.485474,103.028275 151.511658,100.458183 151.190018,97.820427 
	C150.750610,94.216927 152.494675,88.400948 145.290878,92.789612 
	C145.009933,92.960777 144.380142,92.574112 143.917999,92.430901 
	C138.276993,90.682846 134.758942,93.322845 131.530380,97.736275 
	C131.018723,95.794525 130.509659,93.852097 129.994720,91.911217 
	C129.474274,89.949547 128.948013,87.989418 127.780075,85.824173 
M119.178726,103.569496 
	C119.159470,100.573410 119.395828,97.542969 118.999878,94.597519 
	C118.832703,93.353920 117.333618,92.289360 116.439934,91.143417 
	C115.524727,92.304779 114.050026,93.363785 113.814789,94.649551 
	C113.372032,97.069710 113.932335,99.673340 113.489853,102.093597 
	C113.288055,103.197365 111.693481,104.046501 110.730629,105.011131 
	C109.845116,103.997116 108.379265,103.078537 108.193581,101.949440 
	C107.793465,99.516373 108.347321,96.922523 107.916870,94.499992 
	C107.697647,93.266235 106.193344,92.260811 105.269936,91.152176 
	C104.175262,92.308197 102.366890,93.337364 102.134186,94.646599 
	C101.646629,97.389694 101.749176,100.305206 102.041267,103.104866 
	C102.598824,108.448898 105.434341,111.424873 109.523033,110.818283 
	C111.297913,110.554962 112.908264,109.182678 113.613503,108.819168 
	C116.260513,109.368652 118.810951,110.729218 119.990517,109.967354 
	C122.337769,108.451271 121.784134,106.027298 119.178726,103.569496 
M165.007812,96.948143 
	C165.950531,96.055923 167.849258,94.901726 167.687683,94.312119 
	C166.116425,88.578346 160.283386,95.176155 157.953918,91.108391 
	C156.989197,91.967522 155.244354,92.780579 155.190430,93.693512 
	C154.908356,98.468399 154.948898,103.271866 155.094055,108.058815 
	C155.177536,110.812386 157.032745,111.794983 158.975342,109.950592 
	C160.385712,108.611534 160.926682,106.276093 161.643478,104.307785 
	C162.527847,101.879326 159.955215,98.272690 165.007812,96.948143 
z"/>
<path fill="#0082BA" opacity="1.000000" stroke="none" 
	d="
M88.801102,196.023804 
	C96.520584,196.049377 104.259933,196.049377 111.999283,196.049377 
	C112.001938,196.284531 112.004601,196.519699 112.007256,196.754852 
	C104.434990,196.754852 96.862732,196.754852 89.080734,196.355972 
	C88.871002,195.957092 88.820961,195.998215 88.801102,196.023804 
z"/>
<path fill="#007BB0" opacity="1.000000" stroke="none" 
	d="
M196.210815,102.040359 
	C196.210815,98.021225 196.210815,94.002083 196.210815,89.982948 
	C196.435608,89.982407 196.660416,89.981865 196.885208,89.981323 
	C196.885208,93.693619 196.885208,97.405907 196.692596,101.579437 
	C196.499969,102.040688 196.210815,102.040359 196.210815,102.040359 
z"/>
<path fill="#007ABC" opacity="1.000000" stroke="none" 
	d="
M196.124969,102.489815 
	C196.210815,102.040359 196.499969,102.040688 196.644623,102.040726 
	C196.742584,105.559967 196.695908,109.079155 196.333054,112.900787 
	C196.016891,113.203217 196.063446,113.259216 196.091400,113.290977 
	C196.092606,109.861580 196.065857,106.400429 196.124969,102.489815 
z"/>
<path fill="#EDF1F5" opacity="1.000000" stroke="none" 
	d="
M86.370079,92.157104 
	C89.971313,91.820328 93.572495,91.285576 97.173836,91.284447 
	C98.086769,91.284157 99.749886,92.952736 99.789062,93.907005 
	C100.006989,99.214241 100.294655,104.592194 99.677025,109.842262 
	C98.828430,117.055687 90.298477,119.223961 82.365280,114.413124 
	C82.881248,111.795723 87.810364,109.266525 82.461304,105.761353 
	C80.131790,98.948181 80.939194,96.502151 86.370079,92.157104 
M89.162849,104.581894 
	C91.986427,105.108536 94.355362,104.567757 93.980759,101.135941 
	C93.818443,99.648903 92.557098,97.707489 91.267601,97.109329 
	C90.326965,96.673004 87.431282,97.948082 87.325661,98.722038 
	C87.085968,100.478477 88.029938,102.396439 89.162849,104.581894 
z"/>
<path fill="#EFF2F6" opacity="1.000000" stroke="none" 
	d="
M132.257187,98.067215 
	C134.758942,93.322845 138.276993,90.682846 143.917999,92.430901 
	C144.380142,92.574112 145.009933,92.960777 145.290878,92.789612 
	C152.494675,88.400948 150.750610,94.216927 151.190018,97.820427 
	C151.511658,100.458183 152.485474,103.028275 152.682938,105.664894 
	C152.803528,107.275230 152.004440,108.954430 151.618393,110.602692 
	C149.947250,110.062775 148.276123,109.522865 145.840637,108.736000 
	C138.794418,111.751549 137.804810,111.481377 132.309265,104.688217 
	C132.003448,104.936485 131.953064,104.996666 132.330063,104.892235 
	C132.644348,104.534622 132.581635,104.281433 132.439941,103.608047 
	C132.326370,101.480980 132.291779,99.774094 132.257187,98.067215 
M142.128006,96.904572 
	C137.871063,96.377014 138.765656,99.679543 138.929276,101.777016 
	C139.014755,102.872627 141.095276,104.869858 141.618286,104.677254 
	C143.233688,104.082382 145.465530,102.789558 145.691010,101.466614 
	C145.911652,100.172157 143.962418,98.507866 142.128006,96.904572 
z"/>
<path fill="#F1F4F7" opacity="1.000000" stroke="none" 
	d="
M119.297806,103.956055 
	C121.784134,106.027298 122.337769,108.451271 119.990517,109.967354 
	C118.810951,110.729218 116.260513,109.368652 113.613503,108.819168 
	C112.908264,109.182678 111.297913,110.554962 109.523033,110.818283 
	C105.434341,111.424873 102.598824,108.448898 102.041267,103.104866 
	C101.749176,100.305206 101.646629,97.389694 102.134186,94.646599 
	C102.366890,93.337364 104.175262,92.308197 105.269936,91.152176 
	C106.193344,92.260811 107.697647,93.266235 107.916870,94.499992 
	C108.347321,96.922523 107.793465,99.516373 108.193581,101.949440 
	C108.379265,103.078537 109.845116,103.997116 110.730629,105.011131 
	C111.693481,104.046501 113.288055,103.197365 113.489853,102.093597 
	C113.932335,99.673340 113.372032,97.069710 113.814789,94.649551 
	C114.050026,93.363785 115.524727,92.304779 116.439941,91.143417 
	C117.333618,92.289360 118.832703,93.353920 118.999878,94.597519 
	C119.395828,97.542969 119.159470,100.573410 119.297806,103.956055 
z"/>
<path fill="#D8E1EC" opacity="1.000000" stroke="none" 
	d="
M50.017986,94.212143 
	C51.058674,93.045380 52.099369,91.878616 53.388092,90.558098 
	C54.768135,90.926361 55.900146,91.448387 57.032158,91.970413 
	C57.560638,96.070877 58.089127,100.171341 58.617611,104.271805 
	C58.956802,104.324806 59.295994,104.377808 59.635185,104.430809 
	C60.311489,100.627037 60.987793,96.823257 61.906620,93.186226 
	C62.150623,97.017860 62.328304,100.693626 62.103027,104.344528 
	C61.886452,107.854439 63.307751,109.295357 66.724968,108.945312 
	C64.023605,111.248459 55.516514,110.504173 53.157417,107.824654 
	C52.486732,107.062859 51.579403,106.509415 50.385704,105.604980 
	C50.441006,99.825668 44.839035,100.023399 42.214237,97.616798 
	C44.982811,96.408913 47.500401,95.310532 50.017986,94.212143 
z"/>
<path fill="#F0F3F7" opacity="1.000000" stroke="none" 
	d="
M66.851570,108.510345 
	C63.307751,109.295357 61.886452,107.854439 62.103027,104.344528 
	C62.328304,100.693626 62.150623,97.017860 62.123405,92.916824 
	C62.097672,92.480675 62.077179,92.288788 62.443424,92.225700 
	C63.869839,92.217407 64.930008,92.272194 66.105942,92.485153 
	C66.410431,92.833641 66.634026,92.964302 67.287613,93.058975 
	C69.462845,92.653152 71.242935,92.223640 73.023033,91.794136 
	C73.023033,91.794136 73.477081,91.979828 73.999039,92.123627 
	C75.636330,93.223671 76.751656,94.179924 77.866989,95.136169 
	C77.866989,95.136169 77.920227,95.069878 77.908188,95.512650 
	C78.663177,99.325096 79.430206,102.694778 80.197243,106.064453 
	C79.191307,107.641388 78.185364,109.218323 77.179413,110.795258 
	C75.810036,109.122589 73.973091,107.636192 73.210464,105.721817 
	C72.527588,104.007683 73.327507,101.753395 72.895439,99.869972 
	C72.632729,98.724823 71.274338,97.831039 70.408142,96.824341 
	C69.304565,97.773964 67.449951,98.586327 67.246338,99.700432 
	C66.749741,102.417656 67.017921,105.274658 66.851570,108.510345 
z"/>
<path fill="#E6ECF2" opacity="1.000000" stroke="none" 
	d="
M49.699917,94.049919 
	C47.500401,95.310532 44.982811,96.408913 42.214237,97.616798 
	C44.839035,100.023399 50.441006,99.825668 50.023216,105.737732 
	C46.532749,111.189827 41.151859,111.557457 34.966599,106.464378 
	C36.629734,105.601143 37.939999,104.484665 39.372040,104.296875 
	C40.893784,104.097321 42.530994,104.778282 44.117779,105.074738 
	C44.225410,104.654152 44.333042,104.233566 44.440674,103.812973 
	C43.332718,103.366760 42.234524,102.894173 41.114902,102.479446 
	C38.225697,101.409248 35.465584,99.520500 36.855850,96.372421 
	C37.773109,94.295410 40.673161,92.417770 43.019245,91.863266 
	C44.876850,91.424217 47.242046,93.132782 49.699917,94.049919 
z"/>
<path fill="#F4F7F9" opacity="1.000000" stroke="none" 
	d="
M131.976654,104.907814 
	C131.735260,106.330444 131.520660,107.781746 131.312607,109.188812 
	C125.275757,110.576614 123.064659,109.053825 122.946686,103.277550 
	C122.831879,97.656174 122.921738,92.030609 122.921738,85.824173 
	C124.657112,85.824173 126.218597,85.824173 128.066071,86.396851 
	C128.347198,91.761169 128.159454,96.564354 128.460709,101.336678 
	C128.540192,102.595711 130.129440,103.759430 131.253052,105.107452 
	C131.638168,105.164207 131.795624,105.080437 131.953064,104.996666 
	C131.953064,104.996666 132.003448,104.936485 131.976654,104.907814 
z"/>
<path fill="#DFE6EF" opacity="1.000000" stroke="none" 
	d="
M164.587036,96.958862 
	C159.955215,98.272690 162.527847,101.879326 161.643478,104.307785 
	C160.926682,106.276093 160.385712,108.611534 158.975342,109.950592 
	C157.032745,111.794983 155.177536,110.812386 155.094055,108.058815 
	C154.948898,103.271866 154.908356,98.468399 155.190430,93.693512 
	C155.244354,92.780579 156.989197,91.967522 157.953918,91.108383 
	C160.283386,95.176155 166.116425,88.578346 167.687683,94.312119 
	C167.849258,94.901726 165.950531,96.055923 164.587036,96.958862 
z"/>
<path fill="#217CB1" opacity="1.000000" stroke="none" 
	d="
M80.546997,106.041306 
	C79.430206,102.694778 78.663177,99.325096 77.866112,95.518723 
	C79.109848,94.717857 80.423653,94.453575 81.646889,93.963318 
	C83.063217,93.395676 84.399910,92.629303 86.070633,92.053162 
	C80.939194,96.502151 80.131790,98.948181 82.183861,105.564026 
	C81.830605,105.969063 81.363686,105.993614 80.546997,106.041306 
z"/>
<path fill="#E9EEF3" opacity="1.000000" stroke="none" 
	d="
M57.021011,91.584396 
	C55.900146,91.448387 54.768135,90.926361 53.385853,90.196930 
	C53.175259,88.600021 52.918484,87.094330 53.395859,85.876389 
	C53.595726,85.366463 56.082176,85.038910 56.273754,85.365280 
	C57.034409,86.661133 57.299374,88.247963 57.406464,89.961090 
	C57.064934,90.195206 56.943668,90.428879 56.943668,90.428879 
	C56.965736,90.685379 56.987801,90.941879 57.021011,91.584396 
z"/>
<path fill="#006EAA" opacity="1.000000" stroke="none" 
	d="
M131.025406,104.966919 
	C130.129440,103.759430 128.540192,102.595711 128.460709,101.336678 
	C128.159454,96.564354 128.347198,91.761169 128.388184,86.499069 
	C128.948013,87.989418 129.474274,89.949547 129.994720,91.911217 
	C130.509659,93.852097 131.018723,95.794525 131.893784,97.901749 
	C132.291779,99.774094 132.326370,101.480980 132.166260,103.723007 
	C131.656189,104.494408 131.340790,104.730659 131.025406,104.966919 
z"/>
<path fill="#217CB1" opacity="1.000000" stroke="none" 
	d="
M72.745148,91.587936 
	C71.242935,92.223640 69.462845,92.653152 67.233154,92.837219 
	C66.596581,92.271416 66.332115,92.183151 65.990173,92.326988 
	C64.930008,92.272194 63.869839,92.217407 62.409088,92.135529 
	C65.494759,91.866211 68.981003,91.623978 72.745148,91.587936 
z"/>
<path fill="#217CB1" opacity="1.000000" stroke="none" 
	d="
M77.884125,94.780502 
	C76.751656,94.179924 75.636330,93.223671 74.243744,92.106934 
	C76.396484,90.244995 76.772919,90.482094 77.884125,94.780502 
z"/>
<path fill="#D8E1EC" opacity="1.000000" stroke="none" 
	d="
M57.037827,90.452026 
	C56.943668,90.428879 57.064934,90.195206 57.128639,90.171661 
	C57.192341,90.148125 57.131989,90.475182 57.037827,90.452026 
z"/>
<path fill="#227CB1" opacity="1.000000" stroke="none" 
	d="
M88.827774,104.415314 
	C88.029938,102.396439 87.085968,100.478477 87.325661,98.722038 
	C87.431282,97.948082 90.326965,96.673004 91.267601,97.109329 
	C92.557098,97.707489 93.818443,99.648903 93.980759,101.135941 
	C94.355362,104.567757 91.986427,105.108536 88.827774,104.415314 
z"/>
<path fill="#0C76AE" opacity="1.000000" stroke="none" 
	d="
M142.546814,96.955246 
	C143.962418,98.507866 145.911652,100.172157 145.691010,101.466614 
	C145.465530,102.789558 143.233688,104.082382 141.618286,104.677254 
	C141.095276,104.869858 139.014755,102.872627 138.929276,101.777016 
	C138.765656,99.679543 137.871063,96.377014 142.546814,96.955246 
z"/>
<path fill="#0179AF" opacity="1.000000" stroke="none" 
	d="
M131.253052,105.107445 
	C131.340790,104.730659 131.656189,104.494408 132.245255,104.143204 
	C132.581635,104.281433 132.644348,104.534622 132.330063,104.892235 
	C131.795624,105.080437 131.638168,105.164207 131.253052,105.107445 
z"/>
<path fill="#D8E1EC" opacity="1.000000" stroke="none" 
	d="
M66.105942,92.485153 
	C66.332115,92.183151 66.596581,92.271416 66.838028,92.813545 
	C66.634026,92.964302 66.410431,92.833641 66.105942,92.485153 
z"/>
</svg>